<svg width="180" height="43" viewBox="0 0 180 43" fill="none" xmlns="http://www.w3.org/2000/svg">
<path d="M34.1422 5.85781C30.3647 2.08031 25.3422 0 20 0C14.6578 0 9.63531 2.08031 5.85781 5.85781C2.08031 9.63531 0 14.6578 0 20C0 25.3422 2.08039 30.3646 5.85781 34.1422C9.63523 37.9198 14.6578 40 20 40C25.3422 40 30.3647 37.9197 34.1422 34.1422C37.9197 30.3647 40 25.3422 40 20C40 14.6578 37.9196 9.63539 34.1422 5.85781Z" fill="#33CC95"/>
<g clip-path="url(#clip0)">
<path d="M20.5714 8V33.1429" stroke="white" stroke-width="2" stroke-linecap="round" stroke-linejoin="round"/>
<path d="M26.2857 12.5714H17.7143C16.6534 12.5714 15.636 12.9929 14.8859 13.743C14.1357 14.4931 13.7143 15.5106 13.7143 16.5714C13.7143 17.6323 14.1357 18.6497 14.8859 19.3999C15.636 20.15 16.6534 20.5714 17.7143 20.5714H23.4286C24.4894 20.5714 25.5069 20.9929 26.257 21.743C27.0072 22.4932 27.4286 23.5106 27.4286 24.5714C27.4286 25.6323 27.0072 26.6497 26.257 27.3999C25.5069 28.15 24.4894 28.5714 23.4286 28.5714H13.7143" stroke="white" stroke-width="2" stroke-linecap="round" stroke-linejoin="round"/>
</g>
<g filter="url(#filter0_d)">
<path d="M57.8189 18.848H55.7949V28H52.0329V18.848H50.6689V15.724H52.0329V15.372C52.0329 13.8613 52.4656 12.7173 53.3309 11.94C54.1963 11.148 55.4649 10.752 57.1369 10.752C57.4156 10.752 57.6209 10.7593 57.7529 10.774V13.964C57.0343 13.92 56.5283 14.0227 56.2349 14.272C55.9416 14.5213 55.7949 14.9687 55.7949 15.614V15.724H57.8189V18.848ZM61.4787 14.448C60.8187 14.448 60.276 14.2573 59.8507 13.876C59.44 13.48 59.2347 12.996 59.2347 12.424C59.2347 11.8373 59.44 11.3533 59.8507 10.972C60.276 10.576 60.8187 10.378 61.4787 10.378C62.124 10.378 62.652 10.576 63.0627 10.972C63.488 11.3533 63.7007 11.8373 63.7007 12.424C63.7007 12.996 63.488 13.48 63.0627 13.876C62.652 14.2573 62.124 14.448 61.4787 14.448ZM63.3487 15.724V28H59.5867V15.724H63.3487ZM73.5549 15.592C74.9923 15.592 76.1363 16.0613 76.9869 17C77.8523 17.924 78.2849 19.2 78.2849 20.828V28H74.5449V21.334C74.5449 20.5127 74.3323 19.8747 73.9069 19.42C73.4816 18.9653 72.9096 18.738 72.1909 18.738C71.4723 18.738 70.9003 18.9653 70.4749 19.42C70.0496 19.8747 69.8369 20.5127 69.8369 21.334V28H66.0749V15.724H69.8369V17.352C70.2183 16.8093 70.7316 16.384 71.3769 16.076C72.0223 15.7533 72.7483 15.592 73.5549 15.592ZM96.5632 15.592C98.0885 15.592 99.2985 16.054 100.193 16.978C101.102 17.902 101.557 19.1853 101.557 20.828V28H97.8172V21.334C97.8172 20.542 97.6045 19.9333 97.1792 19.508C96.7685 19.068 96.1965 18.848 95.4632 18.848C94.7298 18.848 94.1505 19.068 93.7252 19.508C93.3145 19.9333 93.1092 20.542 93.1092 21.334V28H89.3692V21.334C89.3692 20.542 89.1565 19.9333 88.7312 19.508C88.3205 19.068 87.7485 18.848 87.0152 18.848C86.2818 18.848 85.7025 19.068 85.2772 19.508C84.8665 19.9333 84.6612 20.542 84.6612 21.334V28H80.8992V15.724H84.6612V17.264C85.0425 16.7507 85.5412 16.3473 86.1572 16.054C86.7732 15.746 87.4698 15.592 88.2472 15.592C89.1712 15.592 89.9925 15.79 90.7112 16.186C91.4445 16.582 92.0165 17.1467 92.4272 17.88C92.8525 17.2053 93.4318 16.6553 94.1652 16.23C94.8985 15.8047 95.6978 15.592 96.5632 15.592ZM103.44 21.84C103.44 20.5787 103.675 19.4713 104.144 18.518C104.628 17.5647 105.281 16.8313 106.102 16.318C106.924 15.8047 107.84 15.548 108.852 15.548C109.718 15.548 110.473 15.724 111.118 16.076C111.778 16.428 112.284 16.89 112.636 17.462V15.724H116.398V28H112.636V26.262C112.27 26.834 111.756 27.296 111.096 27.648C110.451 28 109.696 28.176 108.83 28.176C107.833 28.176 106.924 27.9193 106.102 27.406C105.281 26.878 104.628 26.1373 104.144 25.184C103.675 24.216 103.44 23.1013 103.44 21.84ZM112.636 21.862C112.636 20.9233 112.372 20.1827 111.844 19.64C111.331 19.0973 110.7 18.826 109.952 18.826C109.204 18.826 108.566 19.0973 108.038 19.64C107.525 20.168 107.268 20.9013 107.268 21.84C107.268 22.7787 107.525 23.5267 108.038 24.084C108.566 24.6267 109.204 24.898 109.952 24.898C110.7 24.898 111.331 24.6267 111.844 24.084C112.372 23.5413 112.636 22.8007 112.636 21.862ZM126.6 15.592C128.037 15.592 129.181 16.0613 130.032 17C130.897 17.924 131.33 19.2 131.33 20.828V28H127.59V21.334C127.59 20.5127 127.377 19.8747 126.952 19.42C126.527 18.9653 125.955 18.738 125.236 18.738C124.517 18.738 123.945 18.9653 123.52 19.42C123.095 19.8747 122.882 20.5127 122.882 21.334V28H119.12V15.724H122.882V17.352C123.263 16.8093 123.777 16.384 124.422 16.076C125.067 15.7533 125.793 15.592 126.6 15.592ZM133.196 21.84C133.196 20.5787 133.431 19.4713 133.9 18.518C134.384 17.5647 135.037 16.8313 135.858 16.318C136.679 15.8047 137.596 15.548 138.608 15.548C139.473 15.548 140.229 15.724 140.874 16.076C141.534 16.428 142.04 16.89 142.392 17.462V15.724H146.154V28H142.392V26.262C142.025 26.834 141.512 27.296 140.852 27.648C140.207 28 139.451 28.176 138.586 28.176C137.589 28.176 136.679 27.9193 135.858 27.406C135.037 26.878 134.384 26.1373 133.9 25.184C133.431 24.216 133.196 23.1013 133.196 21.84ZM142.392 21.862C142.392 20.9233 142.128 20.1827 141.6 19.64C141.087 19.0973 140.456 18.826 139.708 18.826C138.96 18.826 138.322 19.0973 137.794 19.64C137.281 20.168 137.024 20.9013 137.024 21.84C137.024 22.7787 137.281 23.5267 137.794 24.084C138.322 24.6267 138.96 24.898 139.708 24.898C140.456 24.898 141.087 24.6267 141.6 24.084C142.128 23.5413 142.392 22.8007 142.392 21.862ZM153.54 15.548C154.405 15.548 155.16 15.724 155.806 16.076C156.466 16.428 156.972 16.89 157.324 17.462V15.724H161.086V27.978C161.086 29.1073 160.858 30.1267 160.404 31.036C159.964 31.96 159.282 32.6933 158.358 33.236C157.448 33.7787 156.312 34.05 154.948 34.05C153.129 34.05 151.655 33.6173 150.526 32.752C149.396 31.9013 148.751 30.7427 148.59 29.276H152.308C152.425 29.7453 152.704 30.112 153.144 30.376C153.584 30.6547 154.126 30.794 154.772 30.794C155.549 30.794 156.165 30.5667 156.62 30.112C157.089 29.672 157.324 28.9607 157.324 27.978V26.24C156.957 26.812 156.451 27.2813 155.806 27.648C155.16 28 154.405 28.176 153.54 28.176C152.528 28.176 151.611 27.9193 150.79 27.406C149.968 26.878 149.316 26.1373 148.832 25.184C148.362 24.216 148.128 23.1013 148.128 21.84C148.128 20.5787 148.362 19.4713 148.832 18.518C149.316 17.5647 149.968 16.8313 150.79 16.318C151.611 15.8047 152.528 15.548 153.54 15.548ZM157.324 21.862C157.324 20.9233 157.06 20.1827 156.532 19.64C156.018 19.0973 155.388 18.826 154.64 18.826C153.892 18.826 153.254 19.0973 152.726 19.64C152.212 20.168 151.956 20.9013 151.956 21.84C151.956 22.7787 152.212 23.5267 152.726 24.084C153.254 24.6267 153.892 24.898 154.64 24.898C155.388 24.898 156.018 24.6267 156.532 24.084C157.06 23.5413 157.324 22.8007 157.324 21.862ZM175.379 21.664C175.379 22.016 175.357 22.3827 175.313 22.764H166.799C166.858 23.5267 167.1 24.1133 167.525 24.524C167.965 24.92 168.501 25.118 169.131 25.118C170.07 25.118 170.723 24.722 171.089 23.93H175.093C174.888 24.7367 174.514 25.4627 173.971 26.108C173.443 26.7533 172.776 27.2593 171.969 27.626C171.163 27.9927 170.261 28.176 169.263 28.176C168.061 28.176 166.99 27.9193 166.051 27.406C165.113 26.8927 164.379 26.1593 163.851 25.206C163.323 24.2527 163.059 23.138 163.059 21.862C163.059 20.586 163.316 19.4713 163.829 18.518C164.357 17.5647 165.091 16.8313 166.029 16.318C166.968 15.8047 168.046 15.548 169.263 15.548C170.451 15.548 171.507 15.7973 172.431 16.296C173.355 16.7947 174.074 17.506 174.587 18.43C175.115 19.354 175.379 20.432 175.379 21.664ZM171.529 20.674C171.529 20.0287 171.309 19.5153 170.869 19.134C170.429 18.7527 169.879 18.562 169.219 18.562C168.589 18.562 168.053 18.7453 167.613 19.112C167.188 19.4787 166.924 19.9993 166.821 20.674H171.529Z" fill="white"/>
</g>
<defs>
<filter id="filter0_d" x="46.6689" y="10.378" width="132.71" height="31.672" filterUnits="userSpaceOnUse" color-interpolation-filters="sRGB">
<feFlood flood-opacity="0" result="BackgroundImageFix"/>
<feColorMatrix in="SourceAlpha" type="matrix" values="0 0 0 0 0 0 0 0 0 0 0 0 0 0 0 0 0 0 127 0"/>
<feOffset dy="4"/>
<feGaussianBlur stdDeviation="2"/>
<feColorMatrix type="matrix" values="0 0 0 0 0 0 0 0 0 0 0 0 0 0 0 0 0 0 0.25 0"/>
<feBlend mode="normal" in2="BackgroundImageFix" result="effect1_dropShadow"/>
<feBlend mode="normal" in="SourceGraphic" in2="effect1_dropShadow" result="shape"/>
</filter>
<clipPath id="clip0">
<rect width="27.4286" height="27.4286" fill="white" transform="translate(6.85715 6.85714)"/>
</clipPath>
</defs>
</svg>
